<?xml version="1.0" standalone="no"?>
<!DOCTYPE svg PUBLIC "-//W3C//DTD SVG 20010904//EN"
 "http://www.w3.org/TR/2001/REC-SVG-20010904/DTD/svg10.dtd">
<svg version="1.0" xmlns="http://www.w3.org/2000/svg"
 width="75.000000pt" height="53.000000pt" viewBox="0 0 75.000000 53.000000"
 preserveAspectRatio="xMidYMid meet">

<g transform="translate(0.000000,53.000000) scale(0.100000,-0.100000)"
fill="#000000" stroke="none">
<path d="M215 470 c-143 -6 -146 -20 -4 -20 53 0 89 -4 89 -10 0 -6 -31 -10
-72 -11 -70 -1 -72 -1 -43 -14 39 -18 95 -18 119 0 11 8 23 15 28 15 19 0 5
-19 -37 -49 -25 -18 -53 -47 -62 -64 -18 -35 -20 -36 58 26 25 20 49 37 53 37
21 0 -4 -26 -73 -80 -75 -56 -111 -93 -111 -113 0 -4 45 26 99 68 55 41 102
71 105 66 7 -11 -16 -31 -147 -126 -83 -61 -118 -97 -105 -110 2 -2 61 40 131
92 96 72 131 93 140 84 6 -6 21 -11 34 -11 40 0 26 -33 -34 -80 -42 -33 -53
-46 -40 -48 9 -2 36 10 59 27 49 36 67 31 23 -7 l-30 -25 38 6 c28 4 37 2 37
-9 0 -11 -19 -14 -92 -15 -87 -1 -91 -1 -63 -14 39 -18 146 -19 169 -2 18 13
18 17 2 85 -18 78 -21 121 -7 107 4 -6 14 -32 21 -60 20 -83 20 -82 30 -64 6
10 4 42 -5 85 -16 77 -3 114 15 43 19 -74 20 -76 31 -57 6 10 5 35 -3 67 -8
37 -8 55 -1 62 8 8 13 1 18 -23 10 -44 16 -53 26 -37 4 8 6 32 2 54 -5 39 -3
41 41 73 26 19 44 38 40 43 -9 16 -27 6 -153 -91 -65 -49 -123 -90 -128 -90
-5 0 -20 45 -32 100 -12 55 -25 99 -29 98 -4 -1 -65 -5 -137 -8z"/>
<path d="M384 453 c3 -10 10 -40 16 -67 19 -84 16 -84 128 1 78 59 98 79 82
81 -17 3 -41 -12 -157 -101 -14 -10 -16 -7 -33 61 -7 26 -16 42 -26 42 -10 0
-13 -6 -10 -17z"/>
<path d="M440 448 c0 -49 15 -53 65 -17 41 29 45 34 26 37 -12 2 -29 -2 -38
-10 -13 -10 -17 -10 -20 0 -8 21 -33 13 -33 -10z"/>
<path d="M114 375 c28 -21 142 -21 150 0 4 13 -8 15 -82 15 -79 -1 -85 -2 -68
-15z"/>
</g>
</svg>
